<svg xmlns="http://www.w3.org/2000/svg" xmlns:xlink="http://www.w3.org/1999/xlink" width="619pt" height="1585pt" viewBox="0 0 619.17 1585.2"><g id="graph0" class="graph" transform="scale(1 1) rotate(0) translate(4 1581.2)"><title>MkDocs</title><g id="clust1" class="cluster"><title>cluster_on_config</title><g id="a_clust1"><a xlink:href="#on_config"><polygon fill="#ff3" fill-opacity=".533" stroke="#000" stroke-opacity=".533" points="222.17 -1457.2 222.17 -1533.2 302.17 -1533.2 302.17 -1457.2 222.17 -1457.2"/><text x="262.17" y="-1518" font-family="inherit" font-size="14" text-anchor="middle">on_config</text></a></g></g><g id="clust2" class="cluster"><title>cluster_on_pre_build</title><g id="a_clust2"><a xlink:href="#on_pre_build"><polygon fill="#ff3" fill-opacity=".533" stroke="#000" stroke-opacity=".533" points="154.17 -1373.2 154.17 -1449.2 254.17 -1449.2 254.17 -1373.2 154.17 -1373.2"/><text x="204.17" y="-1434" font-family="inherit" font-size="14" text-anchor="middle">on_pre_build</text></a></g></g><g id="clust3" class="cluster"><title>cluster_on_files</title><g id="a_clust3"><a xlink:href="#on_files"><polygon fill="#ff3" fill-opacity=".533" stroke="#000" stroke-opacity=".533" points="218.17 -1289.2 218.17 -1365.2 334.17 -1365.2 334.17 -1289.2 218.17 -1289.2"/><text x="276.17" y="-1350" font-family="inherit" font-size="14" text-anchor="middle">on_files</text></a></g></g><g id="clust4" class="cluster"><title>cluster_on_nav</title><g id="a_clust4"><a xlink:href="#on_nav"><polygon fill="#ff3" fill-opacity=".533" stroke="#000" stroke-opacity=".533" points="173.17 -1141.2 173.17 -1217.2 327.17 -1217.2 327.17 -1141.2 173.17 -1141.2"/><text x="250.17" y="-1202" font-family="inherit" font-size="14" text-anchor="middle">on_nav</text></a></g></g><g id="clust5" class="cluster"><title>cluster_populate_page</title><g id="a_clust5"><a><polygon fill="#ddd" fill-opacity=".333" stroke="#000" stroke-opacity=".4" points="15.17 -670.6 15.17 -1101.6 277.17 -1101.6 277.17 -670.6 15.17 -670.6"/><text x="146.17" y="-1086.4" font-family="inherit" font-size="14" text-anchor="middle">populate_page</text></a></g></g><g id="clust6" class="cluster"><title>cluster_on_pre_page</title><g id="a_clust6"><a xlink:href="#on_pre_page"><polygon fill="#ff3" fill-opacity=".533" stroke="#000" stroke-opacity=".533" points="58.17 -994.6 58.17 -1070.6 222.17 -1070.6 222.17 -994.6 58.17 -994.6"/><text x="140.17" y="-1055.4" font-family="inherit" font-size="14" text-anchor="middle">on_pre_page</text></a></g></g><g id="clust7" class="cluster"><title>cluster_on_read_source</title><g id="a_clust7"><a xlink:href="#on_read_source"><polygon fill="#ff3" fill-opacity=".533" stroke="#000" stroke-opacity=".533" points="23.17 -910.6 23.17 -986.6 143.17 -986.6 143.17 -910.6 23.17 -910.6"/><text x="83.17" y="-971.4" font-family="inherit" font-size="14" text-anchor="middle">on_read_source</text></a></g></g><g id="clust8" class="cluster"><title>cluster_on_page_markdown</title><g id="a_clust8"><a xlink:href="#on_page_markdown"><polygon fill="#ff3" fill-opacity=".533" stroke="#000" stroke-opacity=".533" points="23.17 -826.6 23.17 -902.6 269.17 -902.6 269.17 -826.6 23.17 -826.6"/><text x="146.17" y="-887.4" font-family="inherit" font-size="14" text-anchor="middle">on_page_markdown</text></a></g></g><g id="clust9" class="cluster"><title>cluster_on_page_content</title><g id="a_clust9"><a xlink:href="#on_page_content"><polygon fill="#ff3" fill-opacity=".533" stroke="#000" stroke-opacity=".533" points="59.17 -678.6 59.17 -754.6 269.17 -754.6 269.17 -678.6 59.17 -678.6"/><text x="164.17" y="-739.4" font-family="inherit" font-size="14" text-anchor="middle">on_page_content</text></a></g></g><g id="clust12" class="cluster"><title>cluster_on_env</title><g id="a_clust12"><a xlink:href="#on_env"><polygon fill="#ff3" fill-opacity=".533" stroke="#000" stroke-opacity=".533" points="273.17 -563 273.17 -639 427.17 -639 427.17 -563 273.17 -563"/><text x="350.17" y="-623.8" font-family="inherit" font-size="14" text-anchor="middle">on_env</text></a></g></g><g id="clust10" class="cluster"><title>cluster_populate_page_2</title><g id="a_clust10"><a><polygon fill="#ddd" fill-opacity=".333" stroke="#000" stroke-opacity=".4" points="334.17 -995.1 334.17 -1070.1 446.17 -1070.1 446.17 -995.1 334.17 -995.1"/><text x="390.17" y="-1054.9" font-family="inherit" font-size="14" text-anchor="middle">populate_page</text></a></g></g><g id="clust11" class="cluster"><title>cluster_populate_page_3</title><g id="a_clust11"><a><polygon fill="#ddd" fill-opacity=".333" stroke="#000" stroke-opacity=".4" points="296.17 -911.1 296.17 -986.1 408.17 -986.1 408.17 -911.1 296.17 -911.1"/><text x="352.17" y="-970.9" font-family="inherit" font-size="14" text-anchor="middle">populate_page</text></a></g></g><g id="clust13" class="cluster"><title>cluster_build_page</title><g id="a_clust13"><a><polygon fill="#ddd" fill-opacity=".333" stroke="#000" stroke-opacity=".4" points="97.17 -176 97.17 -555 479.17 -555 479.17 -176 97.17 -176"/><text x="288.17" y="-539.8" font-family="inherit" font-size="14" text-anchor="middle">build_page</text></a></g></g><g id="clust14" class="cluster"><title>cluster_on_page_context</title><g id="a_clust14"><a xlink:href="#on_page_context"><polygon fill="#ff3" fill-opacity=".533" stroke="#000" stroke-opacity=".533" points="247.17 -396 247.17 -472 471.17 -472 471.17 -396 247.17 -396"/><text x="359.17" y="-456.8" font-family="inherit" font-size="14" text-anchor="middle">on_page_context</text></a></g></g><g id="clust15" class="cluster"><title>cluster_on_post_page</title><g id="a_clust15"><a xlink:href="#on_post_page"><polygon fill="#ff3" fill-opacity=".533" stroke="#000" stroke-opacity=".533" points="190.17 -248 190.17 -324 372.17 -324 372.17 -248 190.17 -248"/><text x="281.17" y="-308.8" font-family="inherit" font-size="14" text-anchor="middle">on_post_page</text></a></g></g><g id="clust16" class="cluster"><title>cluster_build_page_2</title><g id="a_clust16"><a><polygon fill="#ddd" fill-opacity=".333" stroke="#000" stroke-opacity=".4" points="516.17 -480 516.17 -555 603.17 -555 603.17 -480 516.17 -480"/><text x="559.67" y="-539.8" font-family="inherit" font-size="14" text-anchor="middle">build_page</text></a></g></g><g id="clust17" class="cluster"><title>cluster_build_page_3</title><g id="a_clust17"><a><polygon fill="#ddd" fill-opacity=".333" stroke="#000" stroke-opacity=".4" points="501.17 -396.5 501.17 -471.5 588.17 -471.5 588.17 -396.5 501.17 -396.5"/><text x="544.67" y="-456.3" font-family="inherit" font-size="14" text-anchor="middle">build_page</text></a></g></g><g id="clust18" class="cluster"><title>cluster_on_post_build</title><g id="a_clust18"><a xlink:href="#on_post_build"><polygon fill="#ff3" fill-opacity=".533" stroke="#000" stroke-opacity=".533" points="176.17 -92 176.17 -168 283.17 -168 283.17 -92 176.17 -92"/><text x="229.67" y="-152.8" font-family="inherit" font-size="14" text-anchor="middle">on_post_build</text></a></g></g><g id="clust19" class="cluster"><title>cluster_on_serve</title><g id="a_clust19"><a xlink:href="#on_serve"><polygon fill="#ff3" fill-opacity=".533" stroke="#000" stroke-opacity=".533" points="165.17 -8 165.17 -84 293.17 -84 293.17 -8 165.17 -8"/><text x="229.17" y="-68.8" font-family="inherit" font-size="14" text-anchor="middle">on_serve</text></a></g></g><g id="node1" class="node"><title>on_config</title><g id="a_node1"><a><polygon fill="#fff" fill-opacity=".333" stroke="#000" stroke-opacity=".6" points="234.17 -1465.7 234.17 -1501.7 290.17 -1501.7 290.17 -1465.7 234.17 -1465.7"/><text x="262.17" y="-1480" font-family="inherit" font-size="14" text-anchor="middle">config</text></a></g></g><g id="node2" class="node"><title>on_pre_build</title><g id="a_node2"><a><polygon fill="#fff" fill-opacity=".333" stroke="#000" stroke-opacity=".6" points="188.17 -1381.7 188.17 -1417.7 244.17 -1417.7 244.17 -1381.7 188.17 -1381.7"/><text x="216.17" y="-1396" font-family="inherit" font-size="14" text-anchor="middle">config</text></a></g></g><g id="edge2" class="edge"><title>on_config:s-&gt;on_pre_build:n</title><g id="a_edge2"><a><path fill="none" stroke="#000" d="M262.17,-1464.7C262.17,-1453.18 232.96,-1439.99 221.09,-1427.79"/><polygon fill="#000" stroke="#000" points="224.01 -1425.83 216.17 -1418.7 217.85 -1429.16 224.01 -1425.83"/></a></g></g><g id="node6" class="node"><title>get_files</title><g id="a_node6"><a><ellipse cx="308.17" cy="-1399.7" fill="#7f7" fill-opacity=".533" stroke="#000" stroke-opacity=".6" rx="46.29" ry="18"/><text x="308.17" y="-1396" font-family="inherit" font-size="14" text-anchor="middle">get_files</text></a></g></g><g id="edge3" class="edge"><title>on_config:s-&gt;get_files</title><g id="a_edge3"><a><path fill="none" stroke="#000" d="M262.17,-1464.7C262.17,-1449.02 271.38,-1434.56 281.56,-1423.37"/><polygon fill="#000" stroke="#000" points="284.13 -1425.74 288.66 -1416.16 279.15 -1420.83 284.13 -1425.74"/></a></g></g><g id="node3" class="node"><title>on_files</title><g id="a_node3"><a><polygon fill="#fff" fill-opacity=".333" stroke="#000" stroke-opacity=".6" points="226.67 -1297.7 226.67 -1333.7 325.67 -1333.7 325.67 -1297.7 226.67 -1297.7"/><text x="248.17" y="-1312" font-family="inherit" font-size="14" text-anchor="middle">files</text><polyline fill="none" stroke="#000" stroke-opacity=".6" points="269.67 -1297.7 269.67 -1333.7"/><text x="297.67" y="-1312" font-family="inherit" font-size="14" text-anchor="middle">config</text></a></g></g><g id="node4" class="node"><title>on_nav</title><g id="a_node4"><a><polygon fill="#fff" fill-opacity=".333" stroke="#000" stroke-opacity=".6" points="181.67 -1149.7 181.67 -1185.7 318.67 -1185.7 318.67 -1149.7 181.67 -1149.7"/><text x="200.67" y="-1164" font-family="inherit" font-size="14" text-anchor="middle">nav</text><polyline fill="none" stroke="#000" stroke-opacity=".6" points="219.67 -1149.7 219.67 -1185.7"/><text x="247.67" y="-1164" font-family="inherit" font-size="14" text-anchor="middle">config</text><polyline fill="none" stroke="#000" stroke-opacity=".6" points="275.67 -1149.7 275.67 -1185.7"/><text x="297.17" y="-1164" font-family="inherit" font-size="14" text-anchor="middle">files</text></a></g></g><g id="edge7" class="edge"><title>on_files:s-&gt;on_nav:n</title><g id="a_edge7"><a><path fill="none" stroke="#000" d="M248.17,-1296.7C248.17,-1279.21 257.94,-1277.13 265.17,-1261.2 278.55,-1231.72 293.72,-1224.16 296.66,-1196.8"/><polygon fill="#000" stroke="#000" points="300.16 -1196.86 297.17 -1186.7 293.17 -1196.51 300.16 -1196.86"/></a></g></g><g id="node7" class="node"><title>get_nav</title><g id="a_node7"><a><ellipse cx="212.17" cy="-1243.2" fill="#7f7" fill-opacity=".533" stroke="#000" stroke-opacity=".6" rx="43.59" ry="18"/><text x="212.17" y="-1239.5" font-family="inherit" font-size="14" text-anchor="middle">get_nav</text></a></g></g><g id="edge5" class="edge"><title>on_files:s-&gt;get_nav</title><g id="a_edge5"><a><path fill="none" stroke="#000" d="M248.17,-1296.7C248.17,-1286.09 243.11,-1276.06 236.78,-1267.66"/><polygon fill="#000" stroke="#000" points="239.3 -1265.22 230.17 -1259.84 233.95 -1269.74 239.3 -1265.22"/></a></g></g><g id="node12" class="node"><title>render_p</title><g id="a_node12"><a><ellipse cx="81.17" cy="-780.6" fill="#7f7" fill-opacity=".533" stroke="#000" stroke-opacity=".6" rx="38.19" ry="18"/><text x="81.17" y="-776.9" font-family="inherit" font-size="14" text-anchor="middle">render</text></a></g></g><g id="node13" class="node"><title>pages_point_a</title><g id="a_node13"><a><ellipse cx="297.17" cy="-1111.4" fill="#000" stroke="#000" rx="1.8" ry="1.8"/></a></g></g><g id="edge12" class="edge"><title>on_nav:s-&gt;pages_point_a</title><g id="a_edge12"><a><path fill="none" stroke="#000" d="M297.17,-1148.7C297.17,-1134.58 297.17,-1117.38 297.17,-1113.3"/></a></g></g><g id="node21" class="node"><title>get_context</title><g id="a_node21"><a><ellipse cx="321.17" cy="-506" fill="#7f7" fill-opacity=".533" stroke="#000" stroke-opacity=".6" rx="61.19" ry="18"/><text x="321.17" y="-502.3" font-family="inherit" font-size="14" text-anchor="middle">get_context</text></a></g></g><g id="edge28" class="edge"><title>on_nav:s-&gt;get_context</title><g id="a_edge28"><a><path fill="none" stroke="#000" d="M200.17,-1148.7C200.17,-1092.17 410.43,-1141.81 450.17,-1101.6 475.39,-1076.08 464.17,-1057.98 464.17,-1022.1 464.17,-1022.1 464.17,-1022.1 464.17,-647.8 464.17,-607.36 458.3,-592.99 431.17,-563 430.93,-562.74 430.7,-562.48 430.46,-562.22"/><polygon fill="#000" stroke="#000" points="432.71 -559.52 423.13 -555 427.79 -564.51 432.71 -559.52"/></a></g></g><g id="node5" class="node"><title>load_config</title><g id="a_node5"><a><ellipse cx="262.17" cy="-1559.2" fill="#7f7" fill-opacity=".533" stroke="#000" stroke-opacity=".6" rx="59.29" ry="18"/><text x="262.17" y="-1555.5" font-family="inherit" font-size="14" text-anchor="middle">load_config</text></a></g></g><g id="edge1" class="edge"><title>load_config-&gt;on_config:n</title><g id="a_edge1"><a><path fill="none" stroke="#000" d="M262.17,-1541.2C262.17,-1533.04 262.17,-1522.9 262.17,-1512.93"/><polygon fill="#000" stroke="#000" points="265.67 -1512.7 262.17 -1502.7 258.67 -1512.7 265.67 -1512.7"/></a></g></g><g id="edge4" class="edge"><title>get_files-&gt;on_files:n</title><g id="a_edge4"><a><path fill="none" stroke="#000" d="M282.72,-1384.56C269.05,-1375.24 254.09,-1361.67 249.55,-1344.92"/><polygon fill="#000" stroke="#000" points="252.98 -1344.14 248.17 -1334.7 246.04 -1345.08 252.98 -1344.14"/></a></g></g><g id="edge6" class="edge"><title>get_nav-&gt;on_nav:n</title><g id="a_edge6"><a><path fill="none" stroke="#000" d="M206.45,-1224.91C204.16,-1216.86 201.81,-1206.88 200.75,-1196.95"/><polygon fill="#000" stroke="#000" points="204.23 -1196.49 200.17 -1186.7 197.24 -1196.88 204.23 -1196.49"/></a></g></g><g id="node8" class="node"><title>on_pre_page</title><g id="a_node8"><a><polygon fill="#fff" fill-opacity=".333" stroke="#000" stroke-opacity=".6" points="66.67 -1003.1 66.67 -1039.1 213.67 -1039.1 213.67 -1003.1 66.67 -1003.1"/><text x="90.67" y="-1017.4" font-family="inherit" font-size="14" text-anchor="middle">page</text><polyline fill="none" stroke="#000" stroke-opacity=".6" points="114.67 -1003.1 114.67 -1039.1"/><text x="142.67" y="-1017.4" font-family="inherit" font-size="14" text-anchor="middle">config</text><polyline fill="none" stroke="#000" stroke-opacity=".6" points="170.67 -1003.1 170.67 -1039.1"/><text x="192.17" y="-1017.4" font-family="inherit" font-size="14" text-anchor="middle">files</text></a></g></g><g id="node9" class="node"><title>on_read_source</title><g id="a_node9"><a><polygon fill="#fff" fill-opacity=".333" stroke="#000" stroke-opacity=".6" points="31.17 -919.1 31.17 -955.1 135.17 -955.1 135.17 -919.1 31.17 -919.1"/><text x="55.17" y="-933.4" font-family="inherit" font-size="14" text-anchor="middle">page</text><polyline fill="none" stroke="#000" stroke-opacity=".6" points="79.17 -919.1 79.17 -955.1"/><text x="107.17" y="-933.4" font-family="inherit" font-size="14" text-anchor="middle">config</text></a></g></g><g id="edge8" class="edge"><title>on_pre_page:s-&gt;on_read_source:n</title><g id="a_edge8"><a><path fill="none" stroke="#000" stroke-dasharray="5 2" stroke-width="1.5" d="M90.17,-1002.1C90.17,-980.42 65.25,-980.87 57.47,-966.1"/><polygon fill="#000" stroke="#000" stroke-width="1.5" points="60.82 -965.06 55.17 -956.1 54 -966.63 60.82 -965.06"/></a></g></g><g id="node10" class="node"><title>on_page_markdown</title><g id="a_node10"><a><polygon fill="#fff" fill-opacity=".333" stroke="#000" stroke-opacity=".6" points="30.67 -835.1 30.67 -871.1 261.67 -871.1 261.67 -835.1 30.67 -835.1"/><text x="72.67" y="-849.4" font-family="inherit" font-size="14" text-anchor="middle">markdown</text><polyline fill="none" stroke="#000" stroke-opacity=".6" points="114.67 -835.1 114.67 -871.1"/><text x="138.67" y="-849.4" font-family="inherit" font-size="14" text-anchor="middle">page</text><polyline fill="none" stroke="#000" stroke-opacity=".6" points="162.67 -835.1 162.67 -871.1"/><text x="190.67" y="-849.4" font-family="inherit" font-size="14" text-anchor="middle">config</text><polyline fill="none" stroke="#000" stroke-opacity=".6" points="218.67 -835.1 218.67 -871.1"/><text x="240.17" y="-849.4" font-family="inherit" font-size="14" text-anchor="middle">files</text></a></g></g><g id="edge9" class="edge"><title>on_read_source:s-&gt;on_page_markdown:n</title><g id="a_edge9"><a><path fill="none" stroke="#000" stroke-dasharray="5 2" stroke-width="1.5" d="M82.65,-910.6C80.93,-898.95 75.47,-893.12 73.18,-882.35"/><polygon fill="#000" stroke="#000" stroke-width="1.5" points="76.64 -881.71 72.17 -872.1 69.67 -882.4 76.64 -881.71"/></a></g></g><g id="edge10" class="edge"><title>on_page_markdown:s-&gt;render_p</title><g id="a_edge10"><a><path fill="none" stroke="#000" stroke-dasharray="5 2" stroke-width="1.5" d="M72.17,-834.1C72.17,-825.65 73.32,-816.54 74.79,-808.32"/><polygon fill="#000" stroke="#000" stroke-width="1.5" points="78.23 -808.99 76.78 -798.5 71.37 -807.61 78.23 -808.99"/></a></g></g><g id="node11" class="node"><title>on_page_content</title><g id="a_node11"><a><polygon fill="#fff" fill-opacity=".333" stroke="#000" stroke-opacity=".6" points="67.17 -687.1 67.17 -723.1 261.17 -723.1 261.17 -687.1 67.17 -687.1"/><text x="90.67" y="-701.4" font-family="inherit" font-size="14" text-anchor="middle">html</text><polyline fill="none" stroke="#000" stroke-opacity=".6" points="114.17 -687.1 114.17 -723.1"/><text x="138.17" y="-701.4" font-family="inherit" font-size="14" text-anchor="middle">page</text><polyline fill="none" stroke="#000" stroke-opacity=".6" points="162.17 -687.1 162.17 -723.1"/><text x="190.17" y="-701.4" font-family="inherit" font-size="14" text-anchor="middle">config</text><polyline fill="none" stroke="#000" stroke-opacity=".6" points="218.17 -687.1 218.17 -723.1"/><text x="239.67" y="-701.4" font-family="inherit" font-size="14" text-anchor="middle">files</text></a></g></g><g id="node15" class="node"><title>pages_point_b</title><g id="a_node15"><a><ellipse cx="397.17" cy="-648.8" fill="#000" stroke="#000" rx="1.8" ry="1.8"/></a></g></g><g id="edge19" class="edge"><title>on_page_content:s-&gt;pages_point_b</title><g id="a_edge19"><a><path fill="none" stroke="#000" stroke-dasharray="5 2" stroke-width="1.5" d="M90.17,-686.1C90.17,-655.8 329.13,-650.71 385.4,-649.93"/><polygon fill="#000" stroke="#000" stroke-width="1.5" points="385.56 -653.43 395.52 -649.81 385.48 -646.43 385.56 -653.43"/></a></g></g><g id="node17" class="node"><title>on_env</title><g id="a_node17"><a><polygon fill="#fff" fill-opacity=".333" stroke="#000" stroke-opacity=".6" points="281.67 -571.5 281.67 -607.5 418.67 -607.5 418.67 -571.5 281.67 -571.5"/><text x="300.67" y="-585.8" font-family="inherit" font-size="14" text-anchor="middle">env</text><polyline fill="none" stroke="#000" stroke-opacity=".6" points="319.67 -571.5 319.67 -607.5"/><text x="347.67" y="-585.8" font-family="inherit" font-size="14" text-anchor="middle">config</text><polyline fill="none" stroke="#000" stroke-opacity=".6" points="375.67 -571.5 375.67 -607.5"/><text x="397.17" y="-585.8" font-family="inherit" font-size="14" text-anchor="middle">files</text></a></g></g><g id="edge11" class="edge"><title>render_p-&gt;on_page_content:n</title><g id="a_edge11"><a><path fill="none" stroke="#000" stroke-dasharray="5 2" stroke-width="1.5" d="M85.46,-762.22C87.18,-754.14 88.94,-744.15 89.73,-734.27"/><polygon fill="#000" stroke="#000" stroke-width="1.5" points="93.24 -734.24 90.17 -724.1 86.25 -733.94 93.24 -734.24"/></a></g></g><g id="edge13" class="edge"><title>pages_point_a-&gt;on_pre_page:n</title><g id="a_edge13"><a><path fill="none" stroke="#000" stroke-dasharray="5 2" stroke-width="1.5" d="M295.38,-1110.2C276.65,-1108.11 116.72,-1089.17 93.08,-1049.93"/><polygon fill="#000" stroke="#000" stroke-width="1.5" points="96.37 -1048.69 90.17 -1040.1 89.66 -1050.68 96.37 -1048.69"/></a></g></g><g id="edge14" class="edge"><title>pages_point_a-&gt;render_p</title><g id="a_edge14"><a><path fill="none" stroke="#000" d="M296.69,-1109.61C295.82,-1108.11 293.97,-1104.72 293.17,-1101.6 286.59,-1075.78 291.37,-904.53 279.65,-844.98"/><polygon fill="#000" stroke="#000" points="282.96 -843.8 277.17 -834.93 276.17 -845.48 282.96 -843.8"/></a></g></g><g id="node14" class="node"><title>placeholder_cluster_populate_page_2</title><g id="a_node14"><a><ellipse cx="371.17" cy="-1021.1" fill="transparent" stroke="transparent" rx="27" ry="18"/><text x="371.17" y="-1017.4" font-family="inherit" font-size="14" text-anchor="middle">...</text></a></g></g><g id="edge15" class="edge"><title>pages_point_a-&gt;placeholder_cluster_populate_page_2:n</title><g id="a_edge15"><a><path fill="none" stroke="#000" stroke-dasharray="5 2" stroke-width="1.5" d="M298.85,-1110.36C304.03,-1110.15 319.95,-1108.92 330.17,-1101.6 342.3,-1092.91 351.87,-1086.2 358.7,-1078.39"/><polygon fill="#000" stroke="#000" stroke-width="1.5" points="361.66 -1080.27 364.62 -1070.1 355.96 -1076.21 361.66 -1080.27"/></a></g></g><g id="node16" class="node"><title>placeholder_cluster_populate_page_3</title><g id="a_node16"><a><ellipse cx="371.17" cy="-937.1" fill="transparent" stroke="transparent" rx="27" ry="18"/><text x="371.17" y="-933.4" font-family="inherit" font-size="14" text-anchor="middle">...</text></a></g></g><g id="edge17" class="edge"><title>pages_point_a-&gt;placeholder_cluster_populate_page_3:n</title><g id="a_edge17"><a><path fill="none" stroke="#000" stroke-dasharray="5 2" stroke-width="1.5" d="M297.25,-1109.39C298.01,-1100.66 304.28,-1037.09 330.17,-994.6 330.37,-994.27 330.58,-993.94 330.79,-993.62"/><polygon fill="#000" stroke="#000" stroke-width="1.5" points="333.51 -995.83 337.69 -986.1 328.35 -991.1 333.51 -995.83"/></a></g></g><g id="edge16" class="edge"><title>placeholder_cluster_populate_page_2:s-&gt;pages_point_b</title><g id="a_edge16"><a><path fill="none" stroke="#000" stroke-dasharray="5 2" stroke-width="1.5" d="M373.54,-995.1C380.71,-988.29 402.32,-999.36 412.17,-986.6 448.35,-939.72 426.17,-913.32 426.17,-854.1 426.17,-854.1 426.17,-854.1 426.17,-779.6 426.17,-734.14 409.02,-681.83 401.1,-660.1"/><polygon fill="#000" stroke="#000" stroke-width="1.5" points="404.32 -658.72 397.5 -650.61 397.77 -661.2 404.32 -658.72"/></a></g></g><g id="edge20" class="edge"><title>pages_point_b-&gt;on_env:n</title><g id="a_edge20"><a><path fill="none" stroke="#000" d="M397.17,-646.83C397.17,-643.38 397.17,-631.25 397.17,-618.83"/><polygon fill="#000" stroke="#000" points="400.67 -618.5 397.17 -608.5 393.67 -618.5 400.67 -618.5"/></a></g></g><g id="node18" class="node"><title>pages_point_c</title><g id="a_node18"><a><ellipse cx="494.17" cy="-589.5" fill="#000" stroke="#000" rx="1.8" ry="1.8"/></a></g></g><g id="edge21" class="edge"><title>pages_point_b-&gt;pages_point_c</title><g id="a_edge21"><a><path fill="none" stroke="#000" d="M398.81,-647.61C403.86,-646.99 419.56,-644.68 431.17,-639 459.94,-624.94 488.31,-596.53 493.37,-591.33"/></a></g></g><g id="edge18" class="edge"><title>placeholder_cluster_populate_page_3:s-&gt;pages_point_b</title><g id="a_edge18"><a><path fill="none" stroke="#000" stroke-dasharray="5 2" stroke-width="1.5" d="M371.2,-911.1C372.01,-812.21 389.55,-696.4 395.34,-660.78"/><polygon fill="#000" stroke="#000" stroke-width="1.5" points="398.82 -661.2 397 -650.76 391.91 -660.05 398.82 -661.2"/></a></g></g><g id="edge29" class="edge"><title>on_env:s-&gt;get_context</title><g id="a_edge29"><a><path fill="none" stroke="#000" d="M300.17,-570.5C300.17,-568.74 300.24,-566.97 300.38,-565.19"/><polygon fill="#000" stroke="#000" points="303.89 -565.39 301.82 -555 296.96 -564.41 303.89 -565.39"/></a></g></g><g id="node19" class="node"><title>on_page_context</title><g id="a_node19"><a><polygon fill="#fff" fill-opacity=".333" stroke="#000" stroke-opacity=".6" points="255.67 -404.5 255.67 -440.5 462.67 -440.5 462.67 -404.5 255.67 -404.5"/><text x="288.17" y="-418.8" font-family="inherit" font-size="14" text-anchor="middle">context</text><polyline fill="none" stroke="#000" stroke-opacity=".6" points="320.67 -404.5 320.67 -440.5"/><text x="344.67" y="-418.8" font-family="inherit" font-size="14" text-anchor="middle">page</text><polyline fill="none" stroke="#000" stroke-opacity=".6" points="368.67 -404.5 368.67 -440.5"/><text x="396.67" y="-418.8" font-family="inherit" font-size="14" text-anchor="middle">config</text><polyline fill="none" stroke="#000" stroke-opacity=".6" points="424.67 -404.5 424.67 -440.5"/><text x="443.67" y="-418.8" font-family="inherit" font-size="14" text-anchor="middle">nav</text></a></g></g><g id="edge22" class="edge"><title>pages_point_c-&gt;on_page_context:n</title><g id="a_edge22"><a><path fill="none" stroke="#000" stroke-dasharray="5 2" stroke-width="1.5" d="M493.94,-587.69C491.69,-579.69 472.5,-514.64 434.17,-480 404.79,-453.45 354.34,-479.38 345.51,-451.45"/><polygon fill="#000" stroke="#000" stroke-width="1.5" points="348.97 -450.94 344.17 -441.5 342.03 -451.88 348.97 -450.94"/></a></g></g><g id="node25" class="node"><title>placeholder_cluster_build_page_2</title><g id="a_node25"><a><ellipse cx="552.17" cy="-506" fill="transparent" stroke="transparent" rx="27" ry="18"/><text x="552.17" y="-502.3" font-family="inherit" font-size="14" text-anchor="middle">...</text></a></g></g><g id="edge30" class="edge"><title>pages_point_c-&gt;placeholder_cluster_build_page_2:n</title><g id="a_edge30"><a><path fill="none" stroke="#000" stroke-dasharray="5 2" stroke-width="1.5" d="M495.6,-587.84C500.75,-585.43 518.72,-576.44 533.04,-562.64"/><polygon fill="#000" stroke="#000" stroke-width="1.5" points="535.89 -564.72 540.11 -555 530.75 -559.96 535.89 -564.72"/></a></g></g><g id="node26" class="node"><title>placeholder_cluster_build_page_3</title><g id="a_node26"><a><ellipse cx="544.17" cy="-422.5" fill="transparent" stroke="transparent" rx="27" ry="18"/><text x="544.17" y="-418.8" font-family="inherit" font-size="14" text-anchor="middle">...</text></a></g></g><g id="edge31" class="edge"><title>pages_point_c-&gt;placeholder_cluster_build_page_3:n</title><g id="a_edge31"><a><path fill="none" stroke="#000" stroke-dasharray="5 2" stroke-width="1.5" d="M494.14,-587.37C493.94,-578.61 493.43,-520.98 512.17,-480 512.22,-479.89 512.27,-479.78 512.32,-479.68"/><polygon fill="#000" stroke="#000" stroke-width="1.5" points="515.16 -481.73 517.92 -471.5 509.38 -477.77 515.16 -481.73"/></a></g></g><g id="node22" class="node"><title>render</title><g id="a_node22"><a><ellipse cx="229.17" cy="-350" fill="#7f7" fill-opacity=".533" stroke="#000" stroke-opacity=".6" rx="38.19" ry="18"/><text x="229.17" y="-346.3" font-family="inherit" font-size="14" text-anchor="middle">render</text></a></g></g><g id="edge24" class="edge"><title>on_page_context:s-&gt;render</title><g id="a_edge24"><a><path fill="none" stroke="#000" d="M288.17,-403.5C288.17,-388.57 277.5,-376.85 265.23,-368.3"/><polygon fill="#000" stroke="#000" points="266.93 -365.23 256.6 -362.89 263.21 -371.16 266.93 -365.23"/></a></g></g><g id="node20" class="node"><title>on_post_page</title><g id="a_node20"><a><polygon fill="#fff" fill-opacity=".333" stroke="#000" stroke-opacity=".6" points="198.17 -256.5 198.17 -292.5 364.17 -292.5 364.17 -256.5 198.17 -256.5"/><text x="229.17" y="-270.8" font-family="inherit" font-size="14" text-anchor="middle">output</text><polyline fill="none" stroke="#000" stroke-opacity=".6" points="260.17 -256.5 260.17 -292.5"/><text x="284.17" y="-270.8" font-family="inherit" font-size="14" text-anchor="middle">page</text><polyline fill="none" stroke="#000" stroke-opacity=".6" points="308.17 -256.5 308.17 -292.5"/><text x="336.17" y="-270.8" font-family="inherit" font-size="14" text-anchor="middle">config</text></a></g></g><g id="node24" class="node"><title>write_file</title><g id="a_node24"><a><ellipse cx="229.17" cy="-202" fill="#7f7" fill-opacity=".533" stroke="#000" stroke-opacity=".6" rx="50.09" ry="18"/><text x="229.17" y="-198.3" font-family="inherit" font-size="14" text-anchor="middle">write_file</text></a></g></g><g id="edge27" class="edge"><title>on_post_page:s-&gt;write_file</title><g id="a_edge27"><a><path fill="none" stroke="#000" d="M229.17,-255.5C229.17,-247.26 229.17,-238.3 229.17,-230.14"/><polygon fill="#000" stroke="#000" points="232.67 -230.02 229.17 -220.02 225.67 -230.02 232.67 -230.02"/></a></g></g><g id="edge23" class="edge"><title>get_context-&gt;on_page_context:n</title><g id="a_edge23"><a><path fill="none" stroke="#000" d="M306.98,-488.42C299.79,-478.63 291.99,-465.48 289.22,-451.65"/><polygon fill="#000" stroke="#000" points="292.68 -451.09 288.17 -441.5 285.72 -451.81 292.68 -451.09"/></a></g></g><g id="edge26" class="edge"><title>render-&gt;on_post_page:n</title><g id="a_edge26"><a><path fill="none" stroke="#000" d="M229.17,-332C229.17,-323.84 229.17,-313.7 229.17,-303.73"/><polygon fill="#000" stroke="#000" points="232.67 -303.5 229.17 -293.5 225.67 -303.5 232.67 -303.5"/></a></g></g><g id="node23" class="node"><title>get_template</title><g id="a_node23"><a><ellipse cx="171.17" cy="-422.5" fill="#7f7" fill-opacity=".533" stroke="#000" stroke-opacity=".6" rx="66.09" ry="18"/><text x="171.17" y="-418.8" font-family="inherit" font-size="14" text-anchor="middle">get_template</text></a></g></g><g id="edge25" class="edge"><title>get_template-&gt;render</title><g id="a_edge25"><a><path fill="none" stroke="#000" d="M184.91,-404.79C192.24,-395.89 201.39,-384.77 209.46,-374.96"/><polygon fill="#000" stroke="#000" points="212.27 -377.05 215.92 -367.1 206.87 -372.6 212.27 -377.05"/></a></g></g><g id="node27" class="node"><title>on_post_build</title><g id="a_node27"><a><polygon fill="#fff" fill-opacity=".333" stroke="#000" stroke-opacity=".6" points="201.17 -100.5 201.17 -136.5 257.17 -136.5 257.17 -100.5 201.17 -100.5"/><text x="229.17" y="-114.8" font-family="inherit" font-size="14" text-anchor="middle">config</text></a></g></g><g id="node28" class="node"><title>on_serve</title><g id="a_node28"><a><polygon fill="#fff" fill-opacity=".333" stroke="#000" stroke-opacity=".6" points="173.17 -16.5 173.17 -52.5 285.17 -52.5 285.17 -16.5 173.17 -16.5"/><text x="201.17" y="-30.8" font-family="inherit" font-size="14" text-anchor="middle">server</text><polyline fill="none" stroke="#000" stroke-opacity=".6" points="229.17 -16.5 229.17 -52.5"/><text x="257.17" y="-30.8" font-family="inherit" font-size="14" text-anchor="middle">config</text></a></g></g></g></svg>